<svg xmlns="http://www.w3.org/2000/svg" width="1200" height="675" viewBox="0 0 1200 675">
  <rect width="1200" height="675" fill="#ffffff"/>
  <rect x="0" y="0" width="1200" height="48" fill="#f0e5d6"/>
  <circle cx="24" cy="24" r="6" fill="#d09a6e"/>
  <circle cx="44" cy="24" r="6" fill="#d09a6e" opacity="0.6"/>
  <circle cx="64" cy="24" r="6" fill="#d09a6e" opacity="0.3"/>
  <rect x="80" y="80" width="1040" height="240" rx="8" fill="#f9f5ef"/>
  <rect x="120" y="110" width="300" height="18" rx="4" fill="#a8512b" opacity="0.15"/>
  <rect x="120" y="145" width="500" height="10" rx="3" fill="#302520" opacity="0.07"/>
  <rect x="120" y="165" width="480" height="10" rx="3" fill="#302520" opacity="0.07"/>
  <rect x="120" y="185" width="400" height="10" rx="3" fill="#302520" opacity="0.07"/>
  <rect x="120" y="220" width="300" height="60" rx="8" fill="#d09a6e" opacity="0.12"/>
  <rect x="440" y="220" width="300" height="60" rx="8" fill="#d09a6e" opacity="0.12"/>
  <rect x="760" y="220" width="300" height="60" rx="8" fill="#d09a6e" opacity="0.12"/>
  <rect x="80" y="350" width="500" height="280" rx="8" fill="#f9f5ef"/>
  <rect x="620" y="350" width="500" height="280" rx="8" fill="#f9f5ef"/>
  <rect x="110" y="380" width="200" height="14" rx="3" fill="#a8512b" opacity="0.12"/>
  <rect x="110" y="410" width="440" height="8" rx="2" fill="#302520" opacity="0.06"/>
  <rect x="110" y="426" width="420" height="8" rx="2" fill="#302520" opacity="0.06"/>
  <rect x="110" y="442" width="380" height="8" rx="2" fill="#302520" opacity="0.06"/>
  <rect x="650" y="380" width="200" height="14" rx="3" fill="#a8512b" opacity="0.12"/>
  <rect x="650" y="410" width="440" height="8" rx="2" fill="#302520" opacity="0.06"/>
  <rect x="650" y="426" width="420" height="8" rx="2" fill="#302520" opacity="0.06"/>
  <rect x="650" y="442" width="380" height="8" rx="2" fill="#302520" opacity="0.06"/>
</svg>
